<?xml version="1.0" encoding="utf-8"?>
<!-- Generator: Adobe Illustrator 24.0.1, SVG Export Plug-In . SVG Version: 6.00 Build 0)  -->
<svg version="1.1" id="graphics" xmlns="http://www.w3.org/2000/svg" xmlns:xlink="http://www.w3.org/1999/xlink" x="0px" y="0px"
	 viewBox="0 0 419.89 419.88" style="enable-background:new 0 0 419.89 419.88;" xml:space="preserve">
<style type="text/css">
	.st0{fill:#2B2B2B;}
</style>
<g>
	<path class="st0" d="M336.88,232.63l83.02-83.02c-33.23-33.24-78.8-49.54-126.86-49.54c-0.01,0-0.01,0-0.01,0
		c-47.59,0-97.67,15.99-129.04,47.36l75.81,75.82l14.61-14.61l-59.78-59.78c25.68-17.54,61.31-28,97.8-28.12h0.59
		c36.61,0,70.17,10.52,96.53,29.98l-62.78,62.78l-4.52,4.52l-14.61-14.61l45.71-45.71c-17.35-10.82-37.58-16.29-60.32-16.29
		c-22.56,0-45.02,5.56-61.68,14.93l38.2,38.2l0.01-0.01l23.48,23.48l14.61,14.61l-4.7,4.7l-9.91,9.92l-14.61-14.61l7.32-7.32
		l-14.61-14.61l-5.4,5.4l-1.91,1.91l-14.61,14.61l-3.83,3.83l14.61,14.61l3.83-3.83l29.23,29.23l29.23-29.23l13.57,13.57
		l14.61-14.61L336.88,232.63z M293.04,188.79L293.04,188.79l-24.23-24.22c7.86-1.63,16.11-2.5,24.22-2.5
		c8.46,0,16.49,0.9,24.04,2.69L293.04,188.79z"/>
	<path class="st0" d="M249.2,347.45l-83.02,83.02C199.41,463.7,244.99,480,293.05,480c0.01,0,0.01,0,0.01,0
		c47.59,0,97.67-15.99,129.04-47.36l-75.81-75.82l-14.61,14.61l59.78,59.78c-25.68,17.54-61.31,28-97.81,28.12h-0.58
		c-36.61,0-70.16-10.52-96.53-29.98l62.78-62.78l4.52-4.52l14.61,14.61l-45.71,45.71c17.35,10.82,37.59,16.29,60.32,16.29
		c22.56,0,45.02-5.56,61.68-14.93l-38.2-38.2l-0.01,0.01l-23.48-23.48l-14.62-14.6l4.7-4.7l9.92-9.92l14.61,14.61l-7.32,7.32
		l14.62,14.61l3.31-3.31l4-4l14.61-14.61l3.83-3.83L326.09,329l-3.83,3.83l-29.23-29.23l-29.23,29.23l-13.57-13.57l-14.61,14.61
		L249.2,347.45z M293.04,391.28L293.04,391.28l24.23,24.22c-7.86,1.63-16.1,2.5-24.22,2.5c-8.46,0-16.49-0.9-24.04-2.69
		L293.04,391.28z"/>
	<path class="st0" d="M350.45,333.88l83.02,83.02C466.7,383.66,483,338.09,483,290.03c0-0.01,0-0.01,0-0.01
		c0-47.58-15.99-97.66-47.36-129.03l-75.81,75.81l14.61,14.61l59.79-59.78c17.54,25.68,28,61.31,28.11,97.8v0.59
		c0,36.61-10.52,70.16-29.97,96.53l-62.79-62.79l-4.52-4.52l14.61-14.61l45.71,45.71c10.82-17.35,16.29-37.59,16.29-60.32
		c0-22.56-5.56-45.02-14.93-61.68l-38.2,38.2l0.01,0.01l-23.48,23.48l-14.62,14.61l-4.7-4.7l-9.92-9.92l14.62-14.61l7.32,7.32
		l14.61-14.61l-5.4-5.4l-1.91-1.91l-14.61-14.61l-3.83-3.83l-14.62,14.61l3.83,3.83l-29.23,29.23l29.23,29.23l-13.57,13.57
		l14.62,14.61L350.45,333.88z M394.28,290.04L394.28,290.04l24.22-24.23c1.63,7.86,2.5,16.11,2.5,24.23c0,8.46-0.9,16.49-2.69,24.04
		L394.28,290.04z"/>
	<path class="st0" d="M235.63,246.2l-83.02-83.03c-33.23,33.23-49.54,78.81-49.54,126.86c0,0.01,0,0.01,0,0.01
		c0,47.58,15.99,97.66,47.36,129.03l75.82-75.81l-14.61-14.61l-59.78,59.78c-17.54-25.68-28-61.31-28.11-97.8v-0.59
		c0-36.61,10.52-70.16,29.98-96.53l62.78,62.78l4.52,4.52l-14.61,14.61l-45.71-45.71c-10.82,17.35-16.29,37.59-16.29,60.32
		c0,22.56,5.56,45.02,14.93,61.68l38.2-38.2l-0.01-0.01l23.48-23.48l14.61-14.61l4.7,4.7l9.92,9.92l-14.61,14.61l-7.32-7.32
		l-14.61,14.61l5.4,5.4l1.91,1.91l14.61,14.61l3.83,3.83l14.61-14.61l-3.83-3.83l29.23-29.23l-29.23-29.23l13.57-13.57l-14.61-14.61
		L235.63,246.2z M191.79,290.04L191.79,290.04l-24.22,24.23c-1.63-7.86-2.5-16.11-2.5-24.23c0-8.46,0.9-16.49,2.69-24.04
		L191.79,290.04z"/>
</g>
</svg>
